{"title":"ON THE INSIDE 2011 DVDRIP XVID - DIDyourSISTER","uid":6806730,"size":947498640,"categoryP":"video","categoryS":"movies","magnet":"?xt=urn:btih:e2f4bb4affdd293c3a078d85add5f5f43404f4fa&amp;dn=ON+THE+INSIDE+2011+DVDRIP+XVID+-+DIDyourSISTER&amp;tr=udp%3A%2F%2Ftracker.openbittorrent.com%3A80&amp;tr=udp%3A%2F%2Fopen.demonii.com%3A1337&amp;tr=udp%3A%2F%2Ftracker.coppersurfer.tk%3A6969&amp;tr=udp%3A%2F%2Fexodus.desync.com%3A6969","seeders":0,"leechers":0,"uploader":"sceneline","files":67,"time":1320889464,"description":"- &lt;a href=&quot;\nhttp://www.Speed.Cd&quot; rel=&quot;nofollow&quot; target=&quot;_NEW&quot;&gt;\nhttp://www.Speed.Cd&lt;/a&gt;      fast  and The Hottest Private Tracker on the net\n\n   signup is open now\n\nPlease Seed back to make the speed Faster!!!\n\n------------------nfo--------------------------\n-ON THE INSIDE 2011 DVDRIP XVID - DIDyourSISTER\n\nFormat                           : AVI\nFormat/Info                      : Audio Video Interleave\nFile size                        : 902 MiB\nDuration                         : 1h 26mn\nOverall bit rate                 : 1 450 Kbps\nWriting library                  : VirtualDub build 32706/release\n\nVideo\nID                               : 0\nFormat                           : MPEG-4 Visual\nFormat profile                   : Advanced Simple@L5\nFormat settings, BVOP            : 2\nFormat settings, QPel            : No\nFormat settings, GMC             : No warppoints\nFormat settings, Matrix          : Default (H.263)\nMuxing mode                      : Packed bitstream\nCodec ID                         : XVID\nCodec ID/Hint                    : XviD\nDuration                         : 1h 26mn\nBit rate                         : 992 Kbps\nWidth                            : 720 pixels\nHeight                           : 400 pixels\nDisplay aspect ratio             : 16:9\nFrame rate                       : 25.000 fps\nColor space                      : YUV\nChroma subsampling               : 4:2:0\nBit depth                        : 8 bits\nScan type                        : Progressive\nCompression mode                 : Lossy\nBits/(Pixel*Frame)               : 0.138\nStream size                      : 617 MiB (68%)\nWriting library                  : XviD 64\n\nAudio\nID                               : 1\nFormat                           : AC-3\nFormat/Info                      : Audio Coding 3\nMode extension                   : CM (complete main)\nCodec ID                         : 2000\nDuration                         : 1h 26mn\nBit rate mode                    : Constant\nBit rate                         : 448 Kbps\nChannel(s)                       : 6 channels\nChannel positions                : Front: L C R, Side: L R, LFE\nSampling rate                    : 48.0 KHz\nBit depth                        : 16 bits\nCompression mode                 : Lossy\nStream size                      : 279 MiB (31%)\nAlignment                        : Aligned on interleaves\nInterleave, duration             : 40 ms (1.00 video frame)\nInterleave, preload duration     : 512 ms\n\nvideo: on the inside 2011 dvdr - 69.1ch thanks matey :lol:\n\naudio  on the inside 2011 dvdr - 69.1ch thanks matey :lol:\n\nnotes after DIDyourMUM it only right i DIDyourSISTER to ha ha \n\nenjoy\n\np.s sample to look at no photo shop pics is not saying names cm8 oops \n\nwas not saying names. doing it not right the 99 time :lol:\n\none thing rar is best and if you think not your a fool 10 times faster to dowwload if you use a box.\n\n[IMG]http://i.imgur.com/CltDy.png[/IMG]","torrent":{"xt":"urn:btih:e2f4bb4affdd293c3a078d85add5f5f43404f4fa","amp;dn":"ON+THE+INSIDE+2011+DVDRIP+XVID+-+DIDyourSISTER","amp;tr":["udp%3A%2F%2Ftracker.openbittorrent.com%3A80","udp%3A%2F%2Fopen.demonii.com%3A1337","udp%3A%2F%2Ftracker.coppersurfer.tk%3A6969","udp%3A%2F%2Fexodus.desync.com%3A6969"],"infoHash":"e2f4bb4affdd293c3a078d85add5f5f43404f4fa","infoHashBuffer":{"type":"Buffer","data":[226,244,187,74,255,221,41,60,58,7,141,133,173,213,245,244,52,4,244,250]},"announce":[],"urlList":[]}}